<mxfile host="Electron" agent="Mozilla/5.0 (Windows NT 10.0; Win64; x64) AppleWebKit/537.36 (KHTML, like Gecko) draw.io/27.0.2 Chrome/134.0.6998.205 Electron/35.3.0 Safari/537.36" version="27.0.2">
  <diagram name="Page-1" id="uwpC9Lzxpis6jKyaokGC">
    <mxGraphModel dx="992" dy="596" grid="1" gridSize="10" guides="1" tooltips="1" connect="1" arrows="1" fold="1" page="0" pageScale="1" pageWidth="1169" pageHeight="827" math="0" shadow="0">
      <root>
        <mxCell id="0" />
        <mxCell id="1" parent="0" />
        <mxCell id="-C4er3GBCJvEDZZQKXOk-588" value="CATEGORY" style="shape=table;startSize=25;container=1;collapsible=0;childLayout=tableLayout;fixedRows=1;rowLines=1;fontStyle=1;align=center;resizeLast=1;strokeColor=light-dark(#000000,#FFFFFF);" parent="1" vertex="1">
          <mxGeometry x="248" y="20" width="198" height="129" as="geometry" />
        </mxCell>
        <mxCell id="-C4er3GBCJvEDZZQKXOk-589" style="shape=tableRow;horizontal=0;startSize=0;swimlaneHead=0;swimlaneBody=0;fillColor=none;collapsible=0;dropTarget=0;points=[[0,0.5],[1,0.5]];portConstraint=eastwest;top=0;left=0;right=0;bottom=0;strokeColor=light-dark(#000000,#FFFFFF);" parent="-C4er3GBCJvEDZZQKXOk-588" vertex="1">
          <mxGeometry y="25" width="198" height="52" as="geometry" />
        </mxCell>
        <mxCell id="-C4er3GBCJvEDZZQKXOk-590" value="INT" style="shape=partialRectangle;connectable=0;fillColor=none;top=0;left=0;bottom=0;right=0;align=left;spacingLeft=2;overflow=hidden;fontSize=11;fontStyle=1;strokeColor=light-dark(#000000,#FFFFFF);" parent="-C4er3GBCJvEDZZQKXOk-589" vertex="1">
          <mxGeometry width="62" height="52" as="geometry">
            <mxRectangle width="62" height="52" as="alternateBounds" />
          </mxGeometry>
        </mxCell>
        <mxCell id="-C4er3GBCJvEDZZQKXOk-591" value="CID" style="shape=partialRectangle;connectable=0;fillColor=none;top=0;left=0;bottom=0;right=0;align=left;spacingLeft=2;overflow=hidden;fontSize=11;fontStyle=1;strokeColor=light-dark(#000000,#FFFFFF);" parent="-C4er3GBCJvEDZZQKXOk-589" vertex="1">
          <mxGeometry x="62" width="100" height="52" as="geometry">
            <mxRectangle width="100" height="52" as="alternateBounds" />
          </mxGeometry>
        </mxCell>
        <mxCell id="-C4er3GBCJvEDZZQKXOk-592" value="PK" style="shape=partialRectangle;connectable=0;fillColor=none;top=0;left=0;bottom=0;right=0;align=left;spacingLeft=2;overflow=hidden;fontSize=11;fontStyle=1;strokeColor=light-dark(#000000,#FFFFFF);" parent="-C4er3GBCJvEDZZQKXOk-589" vertex="1">
          <mxGeometry x="162" width="36" height="52" as="geometry">
            <mxRectangle width="36" height="52" as="alternateBounds" />
          </mxGeometry>
        </mxCell>
        <mxCell id="-C4er3GBCJvEDZZQKXOk-593" style="shape=tableRow;horizontal=0;startSize=0;swimlaneHead=0;swimlaneBody=0;fillColor=none;collapsible=0;dropTarget=0;points=[[0,0.5],[1,0.5]];portConstraint=eastwest;top=0;left=0;right=0;bottom=0;strokeColor=light-dark(#000000,#FFFFFF);" parent="-C4er3GBCJvEDZZQKXOk-588" vertex="1">
          <mxGeometry y="77" width="198" height="52" as="geometry" />
        </mxCell>
        <mxCell id="-C4er3GBCJvEDZZQKXOk-594" value="VARCHAR" style="shape=partialRectangle;connectable=0;fillColor=none;top=0;left=0;bottom=0;right=0;align=left;spacingLeft=2;overflow=hidden;fontSize=11;strokeColor=light-dark(#000000,#FFFFFF);" parent="-C4er3GBCJvEDZZQKXOk-593" vertex="1">
          <mxGeometry width="62" height="52" as="geometry">
            <mxRectangle width="62" height="52" as="alternateBounds" />
          </mxGeometry>
        </mxCell>
        <mxCell id="-C4er3GBCJvEDZZQKXOk-595" value="NAME" style="shape=partialRectangle;connectable=0;fillColor=none;top=0;left=0;bottom=0;right=0;align=left;spacingLeft=2;overflow=hidden;fontSize=11;strokeColor=light-dark(#000000,#FFFFFF);" parent="-C4er3GBCJvEDZZQKXOk-593" vertex="1">
          <mxGeometry x="62" width="100" height="52" as="geometry">
            <mxRectangle width="100" height="52" as="alternateBounds" />
          </mxGeometry>
        </mxCell>
        <mxCell id="-C4er3GBCJvEDZZQKXOk-596" value="" style="shape=partialRectangle;connectable=0;fillColor=none;top=0;left=0;bottom=0;right=0;align=left;spacingLeft=2;overflow=hidden;fontSize=11;strokeColor=light-dark(#000000,#FFFFFF);" parent="-C4er3GBCJvEDZZQKXOk-593" vertex="1">
          <mxGeometry x="162" width="36" height="52" as="geometry">
            <mxRectangle width="36" height="52" as="alternateBounds" />
          </mxGeometry>
        </mxCell>
        <mxCell id="-C4er3GBCJvEDZZQKXOk-597" value="COMPANY" style="shape=table;startSize=25;container=1;collapsible=0;childLayout=tableLayout;fixedRows=1;rowLines=1;fontStyle=1;align=center;resizeLast=1;strokeColor=light-dark(#000000,#FFFFFF);" parent="1" vertex="1">
          <mxGeometry x="410" y="251" width="226" height="214" as="geometry" />
        </mxCell>
        <mxCell id="-C4er3GBCJvEDZZQKXOk-598" style="shape=tableRow;horizontal=0;startSize=0;swimlaneHead=0;swimlaneBody=0;fillColor=none;collapsible=0;dropTarget=0;points=[[0,0.5],[1,0.5]];portConstraint=eastwest;top=0;left=0;right=0;bottom=0;strokeColor=light-dark(#000000,#FFFFFF);" parent="-C4er3GBCJvEDZZQKXOk-597" vertex="1">
          <mxGeometry y="25" width="226" height="47" as="geometry" />
        </mxCell>
        <mxCell id="-C4er3GBCJvEDZZQKXOk-599" value="INT" style="shape=partialRectangle;connectable=0;fillColor=none;top=0;left=0;bottom=0;right=0;align=left;spacingLeft=2;overflow=hidden;fontSize=11;fontStyle=1;strokeColor=light-dark(#000000,#FFFFFF);" parent="-C4er3GBCJvEDZZQKXOk-598" vertex="1">
          <mxGeometry width="70" height="47" as="geometry">
            <mxRectangle width="70" height="47" as="alternateBounds" />
          </mxGeometry>
        </mxCell>
        <mxCell id="-C4er3GBCJvEDZZQKXOk-600" value="COMPID" style="shape=partialRectangle;connectable=0;fillColor=none;top=0;left=0;bottom=0;right=0;align=left;spacingLeft=2;overflow=hidden;fontSize=11;fontStyle=1;strokeColor=light-dark(#000000,#FFFFFF);" parent="-C4er3GBCJvEDZZQKXOk-598" vertex="1">
          <mxGeometry x="70" width="120" height="47" as="geometry">
            <mxRectangle width="120" height="47" as="alternateBounds" />
          </mxGeometry>
        </mxCell>
        <mxCell id="-C4er3GBCJvEDZZQKXOk-601" value="PK" style="shape=partialRectangle;connectable=0;fillColor=none;top=0;left=0;bottom=0;right=0;align=left;spacingLeft=2;overflow=hidden;fontSize=11;fontStyle=1;strokeColor=light-dark(#000000,#FFFFFF);" parent="-C4er3GBCJvEDZZQKXOk-598" vertex="1">
          <mxGeometry x="190" width="36" height="47" as="geometry">
            <mxRectangle width="36" height="47" as="alternateBounds" />
          </mxGeometry>
        </mxCell>
        <mxCell id="-C4er3GBCJvEDZZQKXOk-602" style="shape=tableRow;horizontal=0;startSize=0;swimlaneHead=0;swimlaneBody=0;fillColor=none;collapsible=0;dropTarget=0;points=[[0,0.5],[1,0.5]];portConstraint=eastwest;top=0;left=0;right=0;bottom=0;strokeColor=light-dark(#000000,#FFFFFF);" parent="-C4er3GBCJvEDZZQKXOk-597" vertex="1">
          <mxGeometry y="72" width="226" height="47" as="geometry" />
        </mxCell>
        <mxCell id="-C4er3GBCJvEDZZQKXOk-603" value="INT" style="shape=partialRectangle;connectable=0;fillColor=none;top=0;left=0;bottom=0;right=0;align=left;spacingLeft=2;overflow=hidden;fontSize=11;fontStyle=1;strokeColor=light-dark(#000000,#FFFFFF);" parent="-C4er3GBCJvEDZZQKXOk-602" vertex="1">
          <mxGeometry width="70" height="47" as="geometry">
            <mxRectangle width="70" height="47" as="alternateBounds" />
          </mxGeometry>
        </mxCell>
        <mxCell id="-C4er3GBCJvEDZZQKXOk-604" value="CATE_ID" style="shape=partialRectangle;connectable=0;fillColor=none;top=0;left=0;bottom=0;right=0;align=left;spacingLeft=2;overflow=hidden;fontSize=11;fontStyle=1;strokeColor=light-dark(#000000,#FFFFFF);" parent="-C4er3GBCJvEDZZQKXOk-602" vertex="1">
          <mxGeometry x="70" width="120" height="47" as="geometry">
            <mxRectangle width="120" height="47" as="alternateBounds" />
          </mxGeometry>
        </mxCell>
        <mxCell id="-C4er3GBCJvEDZZQKXOk-605" value="FK" style="shape=partialRectangle;connectable=0;fillColor=none;top=0;left=0;bottom=0;right=0;align=left;spacingLeft=2;overflow=hidden;fontSize=11;fontStyle=1;strokeColor=light-dark(#000000,#FFFFFF);" parent="-C4er3GBCJvEDZZQKXOk-602" vertex="1">
          <mxGeometry x="190" width="36" height="47" as="geometry">
            <mxRectangle width="36" height="47" as="alternateBounds" />
          </mxGeometry>
        </mxCell>
        <mxCell id="-C4er3GBCJvEDZZQKXOk-606" style="shape=tableRow;horizontal=0;startSize=0;swimlaneHead=0;swimlaneBody=0;fillColor=none;collapsible=0;dropTarget=0;points=[[0,0.5],[1,0.5]];portConstraint=eastwest;top=0;left=0;right=0;bottom=0;strokeColor=light-dark(#000000,#FFFFFF);" parent="-C4er3GBCJvEDZZQKXOk-597" vertex="1">
          <mxGeometry y="119" width="226" height="47" as="geometry" />
        </mxCell>
        <mxCell id="-C4er3GBCJvEDZZQKXOk-607" value="VARCHAR" style="shape=partialRectangle;connectable=0;fillColor=none;top=0;left=0;bottom=0;right=0;align=left;spacingLeft=2;overflow=hidden;fontSize=11;strokeColor=light-dark(#000000,#FFFFFF);" parent="-C4er3GBCJvEDZZQKXOk-606" vertex="1">
          <mxGeometry width="70" height="47" as="geometry">
            <mxRectangle width="70" height="47" as="alternateBounds" />
          </mxGeometry>
        </mxCell>
        <mxCell id="-C4er3GBCJvEDZZQKXOk-608" value="NAME" style="shape=partialRectangle;connectable=0;fillColor=none;top=0;left=0;bottom=0;right=0;align=left;spacingLeft=2;overflow=hidden;fontSize=11;strokeColor=light-dark(#000000,#FFFFFF);" parent="-C4er3GBCJvEDZZQKXOk-606" vertex="1">
          <mxGeometry x="70" width="120" height="47" as="geometry">
            <mxRectangle width="120" height="47" as="alternateBounds" />
          </mxGeometry>
        </mxCell>
        <mxCell id="-C4er3GBCJvEDZZQKXOk-609" value="" style="shape=partialRectangle;connectable=0;fillColor=none;top=0;left=0;bottom=0;right=0;align=left;spacingLeft=2;overflow=hidden;fontSize=11;strokeColor=light-dark(#000000,#FFFFFF);" parent="-C4er3GBCJvEDZZQKXOk-606" vertex="1">
          <mxGeometry x="190" width="36" height="47" as="geometry">
            <mxRectangle width="36" height="47" as="alternateBounds" />
          </mxGeometry>
        </mxCell>
        <mxCell id="-C4er3GBCJvEDZZQKXOk-610" style="shape=tableRow;horizontal=0;startSize=0;swimlaneHead=0;swimlaneBody=0;fillColor=none;collapsible=0;dropTarget=0;points=[[0,0.5],[1,0.5]];portConstraint=eastwest;top=0;left=0;right=0;bottom=0;strokeColor=light-dark(#000000,#FFFFFF);" parent="-C4er3GBCJvEDZZQKXOk-597" vertex="1">
          <mxGeometry y="166" width="226" height="47" as="geometry" />
        </mxCell>
        <mxCell id="-C4er3GBCJvEDZZQKXOk-611" value="VARCHAR" style="shape=partialRectangle;connectable=0;fillColor=none;top=0;left=0;bottom=0;right=0;align=left;spacingLeft=2;overflow=hidden;fontSize=11;strokeColor=light-dark(#000000,#FFFFFF);" parent="-C4er3GBCJvEDZZQKXOk-610" vertex="1">
          <mxGeometry width="70" height="47" as="geometry">
            <mxRectangle width="70" height="47" as="alternateBounds" />
          </mxGeometry>
        </mxCell>
        <mxCell id="-C4er3GBCJvEDZZQKXOk-612" value="COUNTRY" style="shape=partialRectangle;connectable=0;fillColor=none;top=0;left=0;bottom=0;right=0;align=left;spacingLeft=2;overflow=hidden;fontSize=11;strokeColor=light-dark(#000000,#FFFFFF);" parent="-C4er3GBCJvEDZZQKXOk-610" vertex="1">
          <mxGeometry x="70" width="120" height="47" as="geometry">
            <mxRectangle width="120" height="47" as="alternateBounds" />
          </mxGeometry>
        </mxCell>
        <mxCell id="-C4er3GBCJvEDZZQKXOk-613" value="" style="shape=partialRectangle;connectable=0;fillColor=none;top=0;left=0;bottom=0;right=0;align=left;spacingLeft=2;overflow=hidden;fontSize=11;strokeColor=light-dark(#000000,#FFFFFF);" parent="-C4er3GBCJvEDZZQKXOk-610" vertex="1">
          <mxGeometry x="190" width="36" height="47" as="geometry">
            <mxRectangle width="36" height="47" as="alternateBounds" />
          </mxGeometry>
        </mxCell>
        <mxCell id="-C4er3GBCJvEDZZQKXOk-614" value="DEPARTMENT" style="shape=table;startSize=25;container=1;collapsible=0;childLayout=tableLayout;fixedRows=1;rowLines=1;fontStyle=1;align=center;resizeLast=1;strokeColor=light-dark(#000000,#FFFFFF);" parent="1" vertex="1">
          <mxGeometry x="52" y="272" width="238" height="172" as="geometry" />
        </mxCell>
        <mxCell id="-C4er3GBCJvEDZZQKXOk-615" style="shape=tableRow;horizontal=0;startSize=0;swimlaneHead=0;swimlaneBody=0;fillColor=none;collapsible=0;dropTarget=0;points=[[0,0.5],[1,0.5]];portConstraint=eastwest;top=0;left=0;right=0;bottom=0;fontStyle=0;strokeColor=light-dark(#000000,#FFFFFF);" parent="-C4er3GBCJvEDZZQKXOk-614" vertex="1">
          <mxGeometry y="25" width="238" height="49" as="geometry" />
        </mxCell>
        <mxCell id="-C4er3GBCJvEDZZQKXOk-616" value="INT" style="shape=partialRectangle;connectable=0;fillColor=none;top=0;left=0;bottom=0;right=0;align=left;spacingLeft=2;overflow=hidden;fontSize=11;fontStyle=1;strokeColor=light-dark(#000000,#FFFFFF);" parent="-C4er3GBCJvEDZZQKXOk-615" vertex="1">
          <mxGeometry width="68" height="49" as="geometry">
            <mxRectangle width="68" height="49" as="alternateBounds" />
          </mxGeometry>
        </mxCell>
        <mxCell id="-C4er3GBCJvEDZZQKXOk-617" value="DID" style="shape=partialRectangle;connectable=0;fillColor=none;top=0;left=0;bottom=0;right=0;align=left;spacingLeft=2;overflow=hidden;fontSize=11;fontStyle=1;strokeColor=light-dark(#000000,#FFFFFF);" parent="-C4er3GBCJvEDZZQKXOk-615" vertex="1">
          <mxGeometry x="68" width="130" height="49" as="geometry">
            <mxRectangle width="130" height="49" as="alternateBounds" />
          </mxGeometry>
        </mxCell>
        <mxCell id="-C4er3GBCJvEDZZQKXOk-618" value="PK" style="shape=partialRectangle;connectable=0;fillColor=none;top=0;left=0;bottom=0;right=0;align=left;spacingLeft=2;overflow=hidden;fontSize=11;fontStyle=1;strokeColor=light-dark(#000000,#FFFFFF);" parent="-C4er3GBCJvEDZZQKXOk-615" vertex="1">
          <mxGeometry x="198" width="40" height="49" as="geometry">
            <mxRectangle width="40" height="49" as="alternateBounds" />
          </mxGeometry>
        </mxCell>
        <mxCell id="-C4er3GBCJvEDZZQKXOk-619" style="shape=tableRow;horizontal=0;startSize=0;swimlaneHead=0;swimlaneBody=0;fillColor=none;collapsible=0;dropTarget=0;points=[[0,0.5],[1,0.5]];portConstraint=eastwest;top=0;left=0;right=0;bottom=0;strokeColor=light-dark(#000000,#FFFFFF);" parent="-C4er3GBCJvEDZZQKXOk-614" vertex="1">
          <mxGeometry y="74" width="238" height="49" as="geometry" />
        </mxCell>
        <mxCell id="-C4er3GBCJvEDZZQKXOk-620" value="INT" style="shape=partialRectangle;connectable=0;fillColor=none;top=0;left=0;bottom=0;right=0;align=left;spacingLeft=2;overflow=hidden;fontSize=11;fontStyle=1;strokeColor=light-dark(#000000,#FFFFFF);" parent="-C4er3GBCJvEDZZQKXOk-619" vertex="1">
          <mxGeometry width="68" height="49" as="geometry">
            <mxRectangle width="68" height="49" as="alternateBounds" />
          </mxGeometry>
        </mxCell>
        <mxCell id="-C4er3GBCJvEDZZQKXOk-621" value="CID" style="shape=partialRectangle;connectable=0;fillColor=none;top=0;left=0;bottom=0;right=0;align=left;spacingLeft=2;overflow=hidden;fontSize=11;fontStyle=1;strokeColor=light-dark(#000000,#FFFFFF);" parent="-C4er3GBCJvEDZZQKXOk-619" vertex="1">
          <mxGeometry x="68" width="130" height="49" as="geometry">
            <mxRectangle width="130" height="49" as="alternateBounds" />
          </mxGeometry>
        </mxCell>
        <mxCell id="-C4er3GBCJvEDZZQKXOk-622" value="FK" style="shape=partialRectangle;connectable=0;fillColor=none;top=0;left=0;bottom=0;right=0;align=left;spacingLeft=2;overflow=hidden;fontSize=11;fontStyle=1;strokeColor=light-dark(#000000,#FFFFFF);" parent="-C4er3GBCJvEDZZQKXOk-619" vertex="1">
          <mxGeometry x="198" width="40" height="49" as="geometry">
            <mxRectangle width="40" height="49" as="alternateBounds" />
          </mxGeometry>
        </mxCell>
        <mxCell id="-C4er3GBCJvEDZZQKXOk-623" style="shape=tableRow;horizontal=0;startSize=0;swimlaneHead=0;swimlaneBody=0;fillColor=none;collapsible=0;dropTarget=0;points=[[0,0.5],[1,0.5]];portConstraint=eastwest;top=0;left=0;right=0;bottom=0;strokeColor=light-dark(#000000,#FFFFFF);" parent="-C4er3GBCJvEDZZQKXOk-614" vertex="1">
          <mxGeometry y="123" width="238" height="49" as="geometry" />
        </mxCell>
        <mxCell id="-C4er3GBCJvEDZZQKXOk-624" value="VARCHAR" style="shape=partialRectangle;connectable=0;fillColor=none;top=0;left=0;bottom=0;right=0;align=left;spacingLeft=2;overflow=hidden;fontSize=11;strokeColor=light-dark(#000000,#FFFFFF);" parent="-C4er3GBCJvEDZZQKXOk-623" vertex="1">
          <mxGeometry width="68" height="49" as="geometry">
            <mxRectangle width="68" height="49" as="alternateBounds" />
          </mxGeometry>
        </mxCell>
        <mxCell id="-C4er3GBCJvEDZZQKXOk-625" value="NAME" style="shape=partialRectangle;connectable=0;fillColor=none;top=0;left=0;bottom=0;right=0;align=left;spacingLeft=2;overflow=hidden;fontSize=11;strokeColor=light-dark(#000000,#FFFFFF);" parent="-C4er3GBCJvEDZZQKXOk-623" vertex="1">
          <mxGeometry x="68" width="130" height="49" as="geometry">
            <mxRectangle width="130" height="49" as="alternateBounds" />
          </mxGeometry>
        </mxCell>
        <mxCell id="-C4er3GBCJvEDZZQKXOk-626" value="" style="shape=partialRectangle;connectable=0;fillColor=none;top=0;left=0;bottom=0;right=0;align=left;spacingLeft=2;overflow=hidden;fontSize=11;strokeColor=light-dark(#000000,#FFFFFF);" parent="-C4er3GBCJvEDZZQKXOk-623" vertex="1">
          <mxGeometry x="198" width="40" height="49" as="geometry">
            <mxRectangle width="40" height="49" as="alternateBounds" />
          </mxGeometry>
        </mxCell>
        <mxCell id="-C4er3GBCJvEDZZQKXOk-627" value="ORDER" style="shape=table;startSize=25;container=1;collapsible=0;childLayout=tableLayout;fixedRows=1;rowLines=1;fontStyle=1;align=center;resizeLast=1;strokeColor=light-dark(#000000,#FFFFFF);" parent="1" vertex="1">
          <mxGeometry x="52" y="660" width="256" height="172" as="geometry" />
        </mxCell>
        <mxCell id="-C4er3GBCJvEDZZQKXOk-628" style="shape=tableRow;horizontal=0;startSize=0;swimlaneHead=0;swimlaneBody=0;fillColor=none;collapsible=0;dropTarget=0;points=[[0,0.5],[1,0.5]];portConstraint=eastwest;top=0;left=0;right=0;bottom=0;strokeColor=light-dark(#000000,#FFFFFF);" parent="-C4er3GBCJvEDZZQKXOk-627" vertex="1">
          <mxGeometry y="25" width="256" height="49" as="geometry" />
        </mxCell>
        <mxCell id="-C4er3GBCJvEDZZQKXOk-629" value="INT" style="shape=partialRectangle;connectable=0;fillColor=none;top=0;left=0;bottom=0;right=0;align=left;spacingLeft=2;overflow=hidden;fontSize=11;fontStyle=1;strokeColor=light-dark(#000000,#FFFFFF);" parent="-C4er3GBCJvEDZZQKXOk-628" vertex="1">
          <mxGeometry width="70" height="49" as="geometry">
            <mxRectangle width="70" height="49" as="alternateBounds" />
          </mxGeometry>
        </mxCell>
        <mxCell id="-C4er3GBCJvEDZZQKXOk-630" value="OID" style="shape=partialRectangle;connectable=0;fillColor=none;top=0;left=0;bottom=0;right=0;align=left;spacingLeft=2;overflow=hidden;fontSize=11;fontStyle=1;strokeColor=light-dark(#000000,#FFFFFF);" parent="-C4er3GBCJvEDZZQKXOk-628" vertex="1">
          <mxGeometry x="70" width="130" height="49" as="geometry">
            <mxRectangle width="130" height="49" as="alternateBounds" />
          </mxGeometry>
        </mxCell>
        <mxCell id="-C4er3GBCJvEDZZQKXOk-631" value="PK" style="shape=partialRectangle;connectable=0;fillColor=none;top=0;left=0;bottom=0;right=0;align=left;spacingLeft=2;overflow=hidden;fontSize=11;fontStyle=1;strokeColor=light-dark(#000000,#FFFFFF);" parent="-C4er3GBCJvEDZZQKXOk-628" vertex="1">
          <mxGeometry x="200" width="56" height="49" as="geometry">
            <mxRectangle width="56" height="49" as="alternateBounds" />
          </mxGeometry>
        </mxCell>
        <mxCell id="-C4er3GBCJvEDZZQKXOk-632" style="shape=tableRow;horizontal=0;startSize=0;swimlaneHead=0;swimlaneBody=0;fillColor=none;collapsible=0;dropTarget=0;points=[[0,0.5],[1,0.5]];portConstraint=eastwest;top=0;left=0;right=0;bottom=0;strokeColor=light-dark(#000000,#FFFFFF);" parent="-C4er3GBCJvEDZZQKXOk-627" vertex="1">
          <mxGeometry y="74" width="256" height="49" as="geometry" />
        </mxCell>
        <mxCell id="-C4er3GBCJvEDZZQKXOk-633" value="DECIMAL" style="shape=partialRectangle;connectable=0;fillColor=none;top=0;left=0;bottom=0;right=0;align=left;spacingLeft=2;overflow=hidden;fontSize=11;strokeColor=light-dark(#000000,#FFFFFF);" parent="-C4er3GBCJvEDZZQKXOk-632" vertex="1">
          <mxGeometry width="70" height="49" as="geometry">
            <mxRectangle width="70" height="49" as="alternateBounds" />
          </mxGeometry>
        </mxCell>
        <mxCell id="-C4er3GBCJvEDZZQKXOk-634" value="TOTAL_PRICE" style="shape=partialRectangle;connectable=0;fillColor=none;top=0;left=0;bottom=0;right=0;align=left;spacingLeft=2;overflow=hidden;fontSize=11;strokeColor=light-dark(#000000,#FFFFFF);" parent="-C4er3GBCJvEDZZQKXOk-632" vertex="1">
          <mxGeometry x="70" width="130" height="49" as="geometry">
            <mxRectangle width="130" height="49" as="alternateBounds" />
          </mxGeometry>
        </mxCell>
        <mxCell id="-C4er3GBCJvEDZZQKXOk-635" value="" style="shape=partialRectangle;connectable=0;fillColor=none;top=0;left=0;bottom=0;right=0;align=left;spacingLeft=2;overflow=hidden;fontSize=11;strokeColor=light-dark(#000000,#FFFFFF);" parent="-C4er3GBCJvEDZZQKXOk-632" vertex="1">
          <mxGeometry x="200" width="56" height="49" as="geometry">
            <mxRectangle width="56" height="49" as="alternateBounds" />
          </mxGeometry>
        </mxCell>
        <mxCell id="-C4er3GBCJvEDZZQKXOk-636" style="shape=tableRow;horizontal=0;startSize=0;swimlaneHead=0;swimlaneBody=0;fillColor=none;collapsible=0;dropTarget=0;points=[[0,0.5],[1,0.5]];portConstraint=eastwest;top=0;left=0;right=0;bottom=0;strokeColor=light-dark(#000000,#FFFFFF);" parent="-C4er3GBCJvEDZZQKXOk-627" vertex="1">
          <mxGeometry y="123" width="256" height="49" as="geometry" />
        </mxCell>
        <mxCell id="-C4er3GBCJvEDZZQKXOk-637" value="DATETIME" style="shape=partialRectangle;connectable=0;fillColor=none;top=0;left=0;bottom=0;right=0;align=left;spacingLeft=2;overflow=hidden;fontSize=11;strokeColor=light-dark(#000000,#FFFFFF);" parent="-C4er3GBCJvEDZZQKXOk-636" vertex="1">
          <mxGeometry width="70" height="49" as="geometry">
            <mxRectangle width="70" height="49" as="alternateBounds" />
          </mxGeometry>
        </mxCell>
        <mxCell id="-C4er3GBCJvEDZZQKXOk-638" value="ORDER_DATE" style="shape=partialRectangle;connectable=0;fillColor=none;top=0;left=0;bottom=0;right=0;align=left;spacingLeft=2;overflow=hidden;fontSize=11;strokeColor=light-dark(#000000,#FFFFFF);" parent="-C4er3GBCJvEDZZQKXOk-636" vertex="1">
          <mxGeometry x="70" width="130" height="49" as="geometry">
            <mxRectangle width="130" height="49" as="alternateBounds" />
          </mxGeometry>
        </mxCell>
        <mxCell id="-C4er3GBCJvEDZZQKXOk-639" value="" style="shape=partialRectangle;connectable=0;fillColor=none;top=0;left=0;bottom=0;right=0;align=left;spacingLeft=2;overflow=hidden;fontSize=11;strokeColor=light-dark(#000000,#FFFFFF);" parent="-C4er3GBCJvEDZZQKXOk-636" vertex="1">
          <mxGeometry x="200" width="56" height="49" as="geometry">
            <mxRectangle width="56" height="49" as="alternateBounds" />
          </mxGeometry>
        </mxCell>
        <mxCell id="-C4er3GBCJvEDZZQKXOk-640" value="ORDER_DETAILS" style="shape=table;startSize=25;container=1;collapsible=0;childLayout=tableLayout;fixedRows=1;rowLines=1;fontStyle=1;align=center;resizeLast=1;strokeColor=light-dark(#000000,#FFFFFF);" parent="1" vertex="1">
          <mxGeometry x="424" y="1011" width="198" height="257" as="geometry" />
        </mxCell>
        <mxCell id="-C4er3GBCJvEDZZQKXOk-641" style="shape=tableRow;horizontal=0;startSize=0;swimlaneHead=0;swimlaneBody=0;fillColor=none;collapsible=0;dropTarget=0;points=[[0,0.5],[1,0.5]];portConstraint=eastwest;top=0;left=0;right=0;bottom=0;strokeColor=light-dark(#000000,#FFFFFF);" parent="-C4er3GBCJvEDZZQKXOk-640" vertex="1">
          <mxGeometry y="25" width="198" height="46" as="geometry" />
        </mxCell>
        <mxCell id="-C4er3GBCJvEDZZQKXOk-642" value="INT" style="shape=partialRectangle;connectable=0;fillColor=none;top=0;left=0;bottom=0;right=0;align=left;spacingLeft=2;overflow=hidden;fontSize=11;fontStyle=1;strokeColor=light-dark(#000000,#FFFFFF);" parent="-C4er3GBCJvEDZZQKXOk-641" vertex="1">
          <mxGeometry width="42" height="46" as="geometry">
            <mxRectangle width="42" height="46" as="alternateBounds" />
          </mxGeometry>
        </mxCell>
        <mxCell id="-C4er3GBCJvEDZZQKXOk-643" value="OID" style="shape=partialRectangle;connectable=0;fillColor=none;top=0;left=0;bottom=0;right=0;align=left;spacingLeft=2;overflow=hidden;fontSize=11;fontStyle=1;strokeColor=light-dark(#000000,#FFFFFF);" parent="-C4er3GBCJvEDZZQKXOk-641" vertex="1">
          <mxGeometry x="42" width="110" height="46" as="geometry">
            <mxRectangle width="110" height="46" as="alternateBounds" />
          </mxGeometry>
        </mxCell>
        <mxCell id="-C4er3GBCJvEDZZQKXOk-644" value="FK" style="shape=partialRectangle;connectable=0;fillColor=none;top=0;left=0;bottom=0;right=0;align=left;spacingLeft=2;overflow=hidden;fontSize=11;fontStyle=1;strokeColor=light-dark(#000000,#FFFFFF);" parent="-C4er3GBCJvEDZZQKXOk-641" vertex="1">
          <mxGeometry x="152" width="46" height="46" as="geometry">
            <mxRectangle width="46" height="46" as="alternateBounds" />
          </mxGeometry>
        </mxCell>
        <mxCell id="-C4er3GBCJvEDZZQKXOk-645" style="shape=tableRow;horizontal=0;startSize=0;swimlaneHead=0;swimlaneBody=0;fillColor=none;collapsible=0;dropTarget=0;points=[[0,0.5],[1,0.5]];portConstraint=eastwest;top=0;left=0;right=0;bottom=0;strokeColor=light-dark(#000000,#FFFFFF);" parent="-C4er3GBCJvEDZZQKXOk-640" vertex="1">
          <mxGeometry y="71" width="198" height="46" as="geometry" />
        </mxCell>
        <mxCell id="-C4er3GBCJvEDZZQKXOk-646" value="INT" style="shape=partialRectangle;connectable=0;fillColor=none;top=0;left=0;bottom=0;right=0;align=left;spacingLeft=2;overflow=hidden;fontSize=11;fontStyle=1;strokeColor=light-dark(#000000,#FFFFFF);" parent="-C4er3GBCJvEDZZQKXOk-645" vertex="1">
          <mxGeometry width="42" height="46" as="geometry">
            <mxRectangle width="42" height="46" as="alternateBounds" />
          </mxGeometry>
        </mxCell>
        <mxCell id="-C4er3GBCJvEDZZQKXOk-647" value="PID" style="shape=partialRectangle;connectable=0;fillColor=none;top=0;left=0;bottom=0;right=0;align=left;spacingLeft=2;overflow=hidden;fontSize=11;fontStyle=1;strokeColor=light-dark(#000000,#FFFFFF);" parent="-C4er3GBCJvEDZZQKXOk-645" vertex="1">
          <mxGeometry x="42" width="110" height="46" as="geometry">
            <mxRectangle width="110" height="46" as="alternateBounds" />
          </mxGeometry>
        </mxCell>
        <mxCell id="-C4er3GBCJvEDZZQKXOk-648" value="FK" style="shape=partialRectangle;connectable=0;fillColor=none;top=0;left=0;bottom=0;right=0;align=left;spacingLeft=2;overflow=hidden;fontSize=11;fontStyle=1;strokeColor=light-dark(#000000,#FFFFFF);" parent="-C4er3GBCJvEDZZQKXOk-645" vertex="1">
          <mxGeometry x="152" width="46" height="46" as="geometry">
            <mxRectangle width="46" height="46" as="alternateBounds" />
          </mxGeometry>
        </mxCell>
        <mxCell id="-C4er3GBCJvEDZZQKXOk-649" style="shape=tableRow;horizontal=0;startSize=0;swimlaneHead=0;swimlaneBody=0;fillColor=none;collapsible=0;dropTarget=0;points=[[0,0.5],[1,0.5]];portConstraint=eastwest;top=0;left=0;right=0;bottom=0;strokeColor=light-dark(#000000,#FFFFFF);" parent="-C4er3GBCJvEDZZQKXOk-640" vertex="1">
          <mxGeometry y="117" width="198" height="46" as="geometry" />
        </mxCell>
        <mxCell id="-C4er3GBCJvEDZZQKXOk-650" value="INT" style="shape=partialRectangle;connectable=0;fillColor=none;top=0;left=0;bottom=0;right=0;align=left;spacingLeft=2;overflow=hidden;fontSize=11;fontStyle=1;strokeColor=light-dark(#000000,#FFFFFF);" parent="-C4er3GBCJvEDZZQKXOk-649" vertex="1">
          <mxGeometry width="42" height="46" as="geometry">
            <mxRectangle width="42" height="46" as="alternateBounds" />
          </mxGeometry>
        </mxCell>
        <mxCell id="-C4er3GBCJvEDZZQKXOk-651" value="UID" style="shape=partialRectangle;connectable=0;fillColor=none;top=0;left=0;bottom=0;right=0;align=left;spacingLeft=2;overflow=hidden;fontSize=11;fontStyle=1;strokeColor=light-dark(#000000,#FFFFFF);" parent="-C4er3GBCJvEDZZQKXOk-649" vertex="1">
          <mxGeometry x="42" width="110" height="46" as="geometry">
            <mxRectangle width="110" height="46" as="alternateBounds" />
          </mxGeometry>
        </mxCell>
        <mxCell id="-C4er3GBCJvEDZZQKXOk-652" value="FK" style="shape=partialRectangle;connectable=0;fillColor=none;top=0;left=0;bottom=0;right=0;align=left;spacingLeft=2;overflow=hidden;fontSize=11;fontStyle=1;strokeColor=light-dark(#000000,#FFFFFF);" parent="-C4er3GBCJvEDZZQKXOk-649" vertex="1">
          <mxGeometry x="152" width="46" height="46" as="geometry">
            <mxRectangle width="46" height="46" as="alternateBounds" />
          </mxGeometry>
        </mxCell>
        <mxCell id="-C4er3GBCJvEDZZQKXOk-653" style="shape=tableRow;horizontal=0;startSize=0;swimlaneHead=0;swimlaneBody=0;fillColor=none;collapsible=0;dropTarget=0;points=[[0,0.5],[1,0.5]];portConstraint=eastwest;top=0;left=0;right=0;bottom=0;strokeColor=light-dark(#000000,#FFFFFF);" parent="-C4er3GBCJvEDZZQKXOk-640" vertex="1">
          <mxGeometry y="163" width="198" height="46" as="geometry" />
        </mxCell>
        <mxCell id="-C4er3GBCJvEDZZQKXOk-654" value="INT" style="shape=partialRectangle;connectable=0;fillColor=none;top=0;left=0;bottom=0;right=0;align=left;spacingLeft=2;overflow=hidden;fontSize=11;strokeColor=light-dark(#000000,#FFFFFF);" parent="-C4er3GBCJvEDZZQKXOk-653" vertex="1">
          <mxGeometry width="42" height="46" as="geometry">
            <mxRectangle width="42" height="46" as="alternateBounds" />
          </mxGeometry>
        </mxCell>
        <mxCell id="-C4er3GBCJvEDZZQKXOk-655" value="ORDER_ID" style="shape=partialRectangle;connectable=0;fillColor=none;top=0;left=0;bottom=0;right=0;align=left;spacingLeft=2;overflow=hidden;fontSize=11;strokeColor=light-dark(#000000,#FFFFFF);" parent="-C4er3GBCJvEDZZQKXOk-653" vertex="1">
          <mxGeometry x="42" width="110" height="46" as="geometry">
            <mxRectangle width="110" height="46" as="alternateBounds" />
          </mxGeometry>
        </mxCell>
        <mxCell id="-C4er3GBCJvEDZZQKXOk-656" value="" style="shape=partialRectangle;connectable=0;fillColor=none;top=0;left=0;bottom=0;right=0;align=left;spacingLeft=2;overflow=hidden;fontSize=11;strokeColor=light-dark(#000000,#FFFFFF);" parent="-C4er3GBCJvEDZZQKXOk-653" vertex="1">
          <mxGeometry x="152" width="46" height="46" as="geometry">
            <mxRectangle width="46" height="46" as="alternateBounds" />
          </mxGeometry>
        </mxCell>
        <mxCell id="-C4er3GBCJvEDZZQKXOk-657" style="shape=tableRow;horizontal=0;startSize=0;swimlaneHead=0;swimlaneBody=0;fillColor=none;collapsible=0;dropTarget=0;points=[[0,0.5],[1,0.5]];portConstraint=eastwest;top=0;left=0;right=0;bottom=0;strokeColor=light-dark(#000000,#FFFFFF);" parent="-C4er3GBCJvEDZZQKXOk-640" vertex="1">
          <mxGeometry y="209" width="198" height="46" as="geometry" />
        </mxCell>
        <mxCell id="-C4er3GBCJvEDZZQKXOk-658" value="INT" style="shape=partialRectangle;connectable=0;fillColor=none;top=0;left=0;bottom=0;right=0;align=left;spacingLeft=2;overflow=hidden;fontSize=11;strokeColor=light-dark(#000000,#FFFFFF);" parent="-C4er3GBCJvEDZZQKXOk-657" vertex="1">
          <mxGeometry width="42" height="46" as="geometry">
            <mxRectangle width="42" height="46" as="alternateBounds" />
          </mxGeometry>
        </mxCell>
        <mxCell id="-C4er3GBCJvEDZZQKXOk-659" value="QUANTITY" style="shape=partialRectangle;connectable=0;fillColor=none;top=0;left=0;bottom=0;right=0;align=left;spacingLeft=2;overflow=hidden;fontSize=11;strokeColor=light-dark(#000000,#FFFFFF);" parent="-C4er3GBCJvEDZZQKXOk-657" vertex="1">
          <mxGeometry x="42" width="110" height="46" as="geometry">
            <mxRectangle width="110" height="46" as="alternateBounds" />
          </mxGeometry>
        </mxCell>
        <mxCell id="-C4er3GBCJvEDZZQKXOk-660" value="" style="shape=partialRectangle;connectable=0;fillColor=none;top=0;left=0;bottom=0;right=0;align=left;spacingLeft=2;overflow=hidden;fontSize=11;strokeColor=light-dark(#000000,#FFFFFF);" parent="-C4er3GBCJvEDZZQKXOk-657" vertex="1">
          <mxGeometry x="152" width="46" height="46" as="geometry">
            <mxRectangle width="46" height="46" as="alternateBounds" />
          </mxGeometry>
        </mxCell>
        <mxCell id="-C4er3GBCJvEDZZQKXOk-661" value="PRODUCT" style="shape=table;startSize=25;container=1;collapsible=0;childLayout=tableLayout;fixedRows=1;rowLines=1;fontStyle=1;align=center;resizeLast=1;strokeColor=light-dark(#000000,#FFFFFF);" parent="1" vertex="1">
          <mxGeometry x="416" y="588" width="213" height="301" as="geometry" />
        </mxCell>
        <mxCell id="-C4er3GBCJvEDZZQKXOk-662" style="shape=tableRow;horizontal=0;startSize=0;swimlaneHead=0;swimlaneBody=0;fillColor=none;collapsible=0;dropTarget=0;points=[[0,0.5],[1,0.5]];portConstraint=eastwest;top=0;left=0;right=0;bottom=0;strokeColor=light-dark(#000000,#FFFFFF);" parent="-C4er3GBCJvEDZZQKXOk-661" vertex="1">
          <mxGeometry y="25" width="213" height="46" as="geometry" />
        </mxCell>
        <mxCell id="-C4er3GBCJvEDZZQKXOk-663" value="INT" style="shape=partialRectangle;connectable=0;fillColor=none;top=0;left=0;bottom=0;right=0;align=left;spacingLeft=2;overflow=hidden;fontSize=11;fontStyle=1;strokeColor=light-dark(#000000,#FFFFFF);" parent="-C4er3GBCJvEDZZQKXOk-662" vertex="1">
          <mxGeometry width="64" height="46" as="geometry">
            <mxRectangle width="64" height="46" as="alternateBounds" />
          </mxGeometry>
        </mxCell>
        <mxCell id="-C4er3GBCJvEDZZQKXOk-664" value="PID" style="shape=partialRectangle;connectable=0;fillColor=none;top=0;left=0;bottom=0;right=0;align=left;spacingLeft=2;overflow=hidden;fontSize=11;fontStyle=1;strokeColor=light-dark(#000000,#FFFFFF);" parent="-C4er3GBCJvEDZZQKXOk-662" vertex="1">
          <mxGeometry x="64" width="100" height="46" as="geometry">
            <mxRectangle width="100" height="46" as="alternateBounds" />
          </mxGeometry>
        </mxCell>
        <mxCell id="-C4er3GBCJvEDZZQKXOk-665" value="PK" style="shape=partialRectangle;connectable=0;fillColor=none;top=0;left=0;bottom=0;right=0;align=left;spacingLeft=2;overflow=hidden;fontSize=11;fontStyle=1;strokeColor=light-dark(#000000,#FFFFFF);" parent="-C4er3GBCJvEDZZQKXOk-662" vertex="1">
          <mxGeometry x="164" width="49" height="46" as="geometry">
            <mxRectangle width="49" height="46" as="alternateBounds" />
          </mxGeometry>
        </mxCell>
        <mxCell id="-C4er3GBCJvEDZZQKXOk-666" style="shape=tableRow;horizontal=0;startSize=0;swimlaneHead=0;swimlaneBody=0;fillColor=none;collapsible=0;dropTarget=0;points=[[0,0.5],[1,0.5]];portConstraint=eastwest;top=0;left=0;right=0;bottom=0;strokeColor=light-dark(#000000,#FFFFFF);" parent="-C4er3GBCJvEDZZQKXOk-661" vertex="1">
          <mxGeometry y="71" width="213" height="46" as="geometry" />
        </mxCell>
        <mxCell id="-C4er3GBCJvEDZZQKXOk-667" value="INT" style="shape=partialRectangle;connectable=0;fillColor=none;top=0;left=0;bottom=0;right=0;align=left;spacingLeft=2;overflow=hidden;fontSize=11;fontStyle=1;strokeColor=light-dark(#000000,#FFFFFF);" parent="-C4er3GBCJvEDZZQKXOk-666" vertex="1">
          <mxGeometry width="64" height="46" as="geometry">
            <mxRectangle width="64" height="46" as="alternateBounds" />
          </mxGeometry>
        </mxCell>
        <mxCell id="-C4er3GBCJvEDZZQKXOk-668" value="DID" style="shape=partialRectangle;connectable=0;fillColor=none;top=0;left=0;bottom=0;right=0;align=left;spacingLeft=2;overflow=hidden;fontSize=11;fontStyle=1;strokeColor=light-dark(#000000,#FFFFFF);" parent="-C4er3GBCJvEDZZQKXOk-666" vertex="1">
          <mxGeometry x="64" width="100" height="46" as="geometry">
            <mxRectangle width="100" height="46" as="alternateBounds" />
          </mxGeometry>
        </mxCell>
        <mxCell id="-C4er3GBCJvEDZZQKXOk-669" value="FK" style="shape=partialRectangle;connectable=0;fillColor=none;top=0;left=0;bottom=0;right=0;align=left;spacingLeft=2;overflow=hidden;fontSize=11;fontStyle=1;strokeColor=light-dark(#000000,#FFFFFF);" parent="-C4er3GBCJvEDZZQKXOk-666" vertex="1">
          <mxGeometry x="164" width="49" height="46" as="geometry">
            <mxRectangle width="49" height="46" as="alternateBounds" />
          </mxGeometry>
        </mxCell>
        <mxCell id="-C4er3GBCJvEDZZQKXOk-670" style="shape=tableRow;horizontal=0;startSize=0;swimlaneHead=0;swimlaneBody=0;fillColor=none;collapsible=0;dropTarget=0;points=[[0,0.5],[1,0.5]];portConstraint=eastwest;top=0;left=0;right=0;bottom=0;strokeColor=light-dark(#000000,#FFFFFF);" parent="-C4er3GBCJvEDZZQKXOk-661" vertex="1">
          <mxGeometry y="117" width="213" height="46" as="geometry" />
        </mxCell>
        <mxCell id="-C4er3GBCJvEDZZQKXOk-671" value="INT" style="shape=partialRectangle;connectable=0;fillColor=none;top=0;left=0;bottom=0;right=0;align=left;spacingLeft=2;overflow=hidden;fontSize=11;fontStyle=1;strokeColor=light-dark(#000000,#FFFFFF);" parent="-C4er3GBCJvEDZZQKXOk-670" vertex="1">
          <mxGeometry width="64" height="46" as="geometry">
            <mxRectangle width="64" height="46" as="alternateBounds" />
          </mxGeometry>
        </mxCell>
        <mxCell id="-C4er3GBCJvEDZZQKXOk-672" value="SID" style="shape=partialRectangle;connectable=0;fillColor=none;top=0;left=0;bottom=0;right=0;align=left;spacingLeft=2;overflow=hidden;fontSize=11;fontStyle=1;strokeColor=light-dark(#000000,#FFFFFF);" parent="-C4er3GBCJvEDZZQKXOk-670" vertex="1">
          <mxGeometry x="64" width="100" height="46" as="geometry">
            <mxRectangle width="100" height="46" as="alternateBounds" />
          </mxGeometry>
        </mxCell>
        <mxCell id="-C4er3GBCJvEDZZQKXOk-673" value="FK" style="shape=partialRectangle;connectable=0;fillColor=none;top=0;left=0;bottom=0;right=0;align=left;spacingLeft=2;overflow=hidden;fontSize=11;fontStyle=1;strokeColor=light-dark(#000000,#FFFFFF);" parent="-C4er3GBCJvEDZZQKXOk-670" vertex="1">
          <mxGeometry x="164" width="49" height="46" as="geometry">
            <mxRectangle width="49" height="46" as="alternateBounds" />
          </mxGeometry>
        </mxCell>
        <mxCell id="-C4er3GBCJvEDZZQKXOk-674" style="shape=tableRow;horizontal=0;startSize=0;swimlaneHead=0;swimlaneBody=0;fillColor=none;collapsible=0;dropTarget=0;points=[[0,0.5],[1,0.5]];portConstraint=eastwest;top=0;left=0;right=0;bottom=0;strokeColor=light-dark(#000000,#FFFFFF);" parent="-C4er3GBCJvEDZZQKXOk-661" vertex="1">
          <mxGeometry y="163" width="213" height="46" as="geometry" />
        </mxCell>
        <mxCell id="-C4er3GBCJvEDZZQKXOk-675" value="INT" style="shape=partialRectangle;connectable=0;fillColor=none;top=0;left=0;bottom=0;right=0;align=left;spacingLeft=2;overflow=hidden;fontSize=11;fontStyle=1;strokeColor=light-dark(#000000,#FFFFFF);" parent="-C4er3GBCJvEDZZQKXOk-674" vertex="1">
          <mxGeometry width="64" height="46" as="geometry">
            <mxRectangle width="64" height="46" as="alternateBounds" />
          </mxGeometry>
        </mxCell>
        <mxCell id="-C4er3GBCJvEDZZQKXOk-676" value="COMPID" style="shape=partialRectangle;connectable=0;fillColor=none;top=0;left=0;bottom=0;right=0;align=left;spacingLeft=2;overflow=hidden;fontSize=11;fontStyle=1;strokeColor=light-dark(#000000,#FFFFFF);" parent="-C4er3GBCJvEDZZQKXOk-674" vertex="1">
          <mxGeometry x="64" width="100" height="46" as="geometry">
            <mxRectangle width="100" height="46" as="alternateBounds" />
          </mxGeometry>
        </mxCell>
        <mxCell id="-C4er3GBCJvEDZZQKXOk-677" value="FK" style="shape=partialRectangle;connectable=0;fillColor=none;top=0;left=0;bottom=0;right=0;align=left;spacingLeft=2;overflow=hidden;fontSize=11;fontStyle=1;strokeColor=light-dark(#000000,#FFFFFF);" parent="-C4er3GBCJvEDZZQKXOk-674" vertex="1">
          <mxGeometry x="164" width="49" height="46" as="geometry">
            <mxRectangle width="49" height="46" as="alternateBounds" />
          </mxGeometry>
        </mxCell>
        <mxCell id="-C4er3GBCJvEDZZQKXOk-678" style="shape=tableRow;horizontal=0;startSize=0;swimlaneHead=0;swimlaneBody=0;fillColor=none;collapsible=0;dropTarget=0;points=[[0,0.5],[1,0.5]];portConstraint=eastwest;top=0;left=0;right=0;bottom=0;strokeColor=light-dark(#000000,#FFFFFF);" parent="-C4er3GBCJvEDZZQKXOk-661" vertex="1">
          <mxGeometry y="209" width="213" height="46" as="geometry" />
        </mxCell>
        <mxCell id="-C4er3GBCJvEDZZQKXOk-679" value="VARCHAR" style="shape=partialRectangle;connectable=0;fillColor=none;top=0;left=0;bottom=0;right=0;align=left;spacingLeft=2;overflow=hidden;fontSize=11;strokeColor=light-dark(#000000,#FFFFFF);" parent="-C4er3GBCJvEDZZQKXOk-678" vertex="1">
          <mxGeometry width="64" height="46" as="geometry">
            <mxRectangle width="64" height="46" as="alternateBounds" />
          </mxGeometry>
        </mxCell>
        <mxCell id="-C4er3GBCJvEDZZQKXOk-680" value="NAME" style="shape=partialRectangle;connectable=0;fillColor=none;top=0;left=0;bottom=0;right=0;align=left;spacingLeft=2;overflow=hidden;fontSize=11;strokeColor=light-dark(#000000,#FFFFFF);" parent="-C4er3GBCJvEDZZQKXOk-678" vertex="1">
          <mxGeometry x="64" width="100" height="46" as="geometry">
            <mxRectangle width="100" height="46" as="alternateBounds" />
          </mxGeometry>
        </mxCell>
        <mxCell id="-C4er3GBCJvEDZZQKXOk-681" value="" style="shape=partialRectangle;connectable=0;fillColor=none;top=0;left=0;bottom=0;right=0;align=left;spacingLeft=2;overflow=hidden;fontSize=11;strokeColor=light-dark(#000000,#FFFFFF);" parent="-C4er3GBCJvEDZZQKXOk-678" vertex="1">
          <mxGeometry x="164" width="49" height="46" as="geometry">
            <mxRectangle width="49" height="46" as="alternateBounds" />
          </mxGeometry>
        </mxCell>
        <mxCell id="-C4er3GBCJvEDZZQKXOk-682" style="shape=tableRow;horizontal=0;startSize=0;swimlaneHead=0;swimlaneBody=0;fillColor=none;collapsible=0;dropTarget=0;points=[[0,0.5],[1,0.5]];portConstraint=eastwest;top=0;left=0;right=0;bottom=0;strokeColor=light-dark(#000000,#FFFFFF);" parent="-C4er3GBCJvEDZZQKXOk-661" vertex="1">
          <mxGeometry y="255" width="213" height="46" as="geometry" />
        </mxCell>
        <mxCell id="-C4er3GBCJvEDZZQKXOk-683" value="DECIMAL" style="shape=partialRectangle;connectable=0;fillColor=none;top=0;left=0;bottom=0;right=0;align=left;spacingLeft=2;overflow=hidden;fontSize=11;strokeColor=light-dark(#000000,#FFFFFF);" parent="-C4er3GBCJvEDZZQKXOk-682" vertex="1">
          <mxGeometry width="64" height="46" as="geometry">
            <mxRectangle width="64" height="46" as="alternateBounds" />
          </mxGeometry>
        </mxCell>
        <mxCell id="-C4er3GBCJvEDZZQKXOk-684" value="PRICE" style="shape=partialRectangle;connectable=0;fillColor=none;top=0;left=0;bottom=0;right=0;align=left;spacingLeft=2;overflow=hidden;fontSize=11;strokeColor=light-dark(#000000,#FFFFFF);" parent="-C4er3GBCJvEDZZQKXOk-682" vertex="1">
          <mxGeometry x="64" width="100" height="46" as="geometry">
            <mxRectangle width="100" height="46" as="alternateBounds" />
          </mxGeometry>
        </mxCell>
        <mxCell id="-C4er3GBCJvEDZZQKXOk-685" value="" style="shape=partialRectangle;connectable=0;fillColor=none;top=0;left=0;bottom=0;right=0;align=left;spacingLeft=2;overflow=hidden;fontSize=11;strokeColor=light-dark(#000000,#FFFFFF);" parent="-C4er3GBCJvEDZZQKXOk-682" vertex="1">
          <mxGeometry x="164" width="49" height="46" as="geometry">
            <mxRectangle width="49" height="46" as="alternateBounds" />
          </mxGeometry>
        </mxCell>
        <mxCell id="-C4er3GBCJvEDZZQKXOk-686" value="STOCK" style="shape=table;startSize=25;container=1;collapsible=0;childLayout=tableLayout;fixedRows=1;rowLines=1;fontStyle=1;align=center;resizeLast=1;strokeColor=light-dark(#000000,#FFFFFF);" parent="1" vertex="1">
          <mxGeometry x="710" y="293.5" width="267" height="129" as="geometry" />
        </mxCell>
        <mxCell id="-C4er3GBCJvEDZZQKXOk-687" style="shape=tableRow;horizontal=0;startSize=0;swimlaneHead=0;swimlaneBody=0;fillColor=none;collapsible=0;dropTarget=0;points=[[0,0.5],[1,0.5]];portConstraint=eastwest;top=0;left=0;right=0;bottom=0;strokeColor=light-dark(#000000,#FFFFFF);" parent="-C4er3GBCJvEDZZQKXOk-686" vertex="1">
          <mxGeometry y="25" width="267" height="52" as="geometry" />
        </mxCell>
        <mxCell id="-C4er3GBCJvEDZZQKXOk-688" value="INT" style="shape=partialRectangle;connectable=0;fillColor=none;top=0;left=0;bottom=0;right=0;align=left;spacingLeft=2;overflow=hidden;fontSize=11;strokeColor=light-dark(#000000,#FFFFFF);" parent="-C4er3GBCJvEDZZQKXOk-687" vertex="1">
          <mxGeometry width="50" height="52" as="geometry">
            <mxRectangle width="50" height="52" as="alternateBounds" />
          </mxGeometry>
        </mxCell>
        <mxCell id="-C4er3GBCJvEDZZQKXOk-689" value="PRODUCT_QUANTITY" style="shape=partialRectangle;connectable=0;fillColor=none;top=0;left=0;bottom=0;right=0;align=left;spacingLeft=2;overflow=hidden;fontSize=11;strokeColor=light-dark(#000000,#FFFFFF);" parent="-C4er3GBCJvEDZZQKXOk-687" vertex="1">
          <mxGeometry x="50" width="170" height="52" as="geometry">
            <mxRectangle width="170" height="52" as="alternateBounds" />
          </mxGeometry>
        </mxCell>
        <mxCell id="-C4er3GBCJvEDZZQKXOk-690" value="" style="shape=partialRectangle;connectable=0;fillColor=none;top=0;left=0;bottom=0;right=0;align=left;spacingLeft=2;overflow=hidden;fontSize=11;strokeColor=light-dark(#000000,#FFFFFF);" parent="-C4er3GBCJvEDZZQKXOk-687" vertex="1">
          <mxGeometry x="220" width="47" height="52" as="geometry">
            <mxRectangle width="47" height="52" as="alternateBounds" />
          </mxGeometry>
        </mxCell>
        <mxCell id="-C4er3GBCJvEDZZQKXOk-691" style="shape=tableRow;horizontal=0;startSize=0;swimlaneHead=0;swimlaneBody=0;fillColor=none;collapsible=0;dropTarget=0;points=[[0,0.5],[1,0.5]];portConstraint=eastwest;top=0;left=0;right=0;bottom=0;strokeColor=light-dark(#000000,#FFFFFF);" parent="-C4er3GBCJvEDZZQKXOk-686" vertex="1">
          <mxGeometry y="77" width="267" height="52" as="geometry" />
        </mxCell>
        <mxCell id="-C4er3GBCJvEDZZQKXOk-692" value="INT" style="shape=partialRectangle;connectable=0;fillColor=none;top=0;left=0;bottom=0;right=0;align=left;spacingLeft=2;overflow=hidden;fontSize=11;fontStyle=1;strokeColor=light-dark(#000000,#FFFFFF);" parent="-C4er3GBCJvEDZZQKXOk-691" vertex="1">
          <mxGeometry width="50" height="52" as="geometry">
            <mxRectangle width="50" height="52" as="alternateBounds" />
          </mxGeometry>
        </mxCell>
        <mxCell id="-C4er3GBCJvEDZZQKXOk-693" value="PROD_ID" style="shape=partialRectangle;connectable=0;fillColor=none;top=0;left=0;bottom=0;right=0;align=left;spacingLeft=2;overflow=hidden;fontSize=11;fontStyle=1;strokeColor=light-dark(#000000,#FFFFFF);" parent="-C4er3GBCJvEDZZQKXOk-691" vertex="1">
          <mxGeometry x="50" width="170" height="52" as="geometry">
            <mxRectangle width="170" height="52" as="alternateBounds" />
          </mxGeometry>
        </mxCell>
        <mxCell id="-C4er3GBCJvEDZZQKXOk-694" value="PK" style="shape=partialRectangle;connectable=0;fillColor=none;top=0;left=0;bottom=0;right=0;align=left;spacingLeft=2;overflow=hidden;fontSize=11;fontStyle=1;strokeColor=light-dark(#000000,#FFFFFF);" parent="-C4er3GBCJvEDZZQKXOk-691" vertex="1">
          <mxGeometry x="220" width="47" height="52" as="geometry">
            <mxRectangle width="47" height="52" as="alternateBounds" />
          </mxGeometry>
        </mxCell>
        <mxCell id="-C4er3GBCJvEDZZQKXOk-695" value="USER" style="shape=table;startSize=25;container=1;collapsible=0;childLayout=tableLayout;fixedRows=1;rowLines=1;fontStyle=1;align=center;resizeLast=1;strokeColor=light-dark(#000000,#FFFFFF);" parent="1" vertex="1">
          <mxGeometry x="743" y="620" width="234" height="342" as="geometry" />
        </mxCell>
        <mxCell id="-C4er3GBCJvEDZZQKXOk-696" style="shape=tableRow;horizontal=0;startSize=0;swimlaneHead=0;swimlaneBody=0;fillColor=none;collapsible=0;dropTarget=0;points=[[0,0.5],[1,0.5]];portConstraint=eastwest;top=0;left=0;right=0;bottom=0;strokeColor=light-dark(#000000,#FFFFFF);" parent="-C4er3GBCJvEDZZQKXOk-695" vertex="1">
          <mxGeometry y="25" width="234" height="45" as="geometry" />
        </mxCell>
        <mxCell id="-C4er3GBCJvEDZZQKXOk-697" value="INT" style="shape=partialRectangle;connectable=0;fillColor=none;top=0;left=0;bottom=0;right=0;align=left;spacingLeft=2;overflow=hidden;fontSize=11;fontStyle=1;strokeColor=light-dark(#000000,#FFFFFF);" parent="-C4er3GBCJvEDZZQKXOk-696" vertex="1">
          <mxGeometry width="71" height="45" as="geometry">
            <mxRectangle width="71" height="45" as="alternateBounds" />
          </mxGeometry>
        </mxCell>
        <mxCell id="-C4er3GBCJvEDZZQKXOk-698" value="UID" style="shape=partialRectangle;connectable=0;fillColor=none;top=0;left=0;bottom=0;right=0;align=left;spacingLeft=2;overflow=hidden;fontSize=11;fontStyle=1;strokeColor=light-dark(#000000,#FFFFFF);" parent="-C4er3GBCJvEDZZQKXOk-696" vertex="1">
          <mxGeometry x="71" width="120" height="45" as="geometry">
            <mxRectangle width="120" height="45" as="alternateBounds" />
          </mxGeometry>
        </mxCell>
        <mxCell id="-C4er3GBCJvEDZZQKXOk-699" value="PK" style="shape=partialRectangle;connectable=0;fillColor=none;top=0;left=0;bottom=0;right=0;align=left;spacingLeft=2;overflow=hidden;fontSize=11;fontStyle=1;strokeColor=light-dark(#000000,#FFFFFF);" parent="-C4er3GBCJvEDZZQKXOk-696" vertex="1">
          <mxGeometry x="191" width="43" height="45" as="geometry">
            <mxRectangle width="43" height="45" as="alternateBounds" />
          </mxGeometry>
        </mxCell>
        <mxCell id="-C4er3GBCJvEDZZQKXOk-700" style="shape=tableRow;horizontal=0;startSize=0;swimlaneHead=0;swimlaneBody=0;fillColor=none;collapsible=0;dropTarget=0;points=[[0,0.5],[1,0.5]];portConstraint=eastwest;top=0;left=0;right=0;bottom=0;strokeColor=light-dark(#000000,#FFFFFF);" parent="-C4er3GBCJvEDZZQKXOk-695" vertex="1">
          <mxGeometry y="70" width="234" height="45" as="geometry" />
        </mxCell>
        <mxCell id="-C4er3GBCJvEDZZQKXOk-701" value="VARCHAR" style="shape=partialRectangle;connectable=0;fillColor=none;top=0;left=0;bottom=0;right=0;align=left;spacingLeft=2;overflow=hidden;fontSize=11;strokeColor=light-dark(#000000,#FFFFFF);" parent="-C4er3GBCJvEDZZQKXOk-700" vertex="1">
          <mxGeometry width="71" height="45" as="geometry">
            <mxRectangle width="71" height="45" as="alternateBounds" />
          </mxGeometry>
        </mxCell>
        <mxCell id="-C4er3GBCJvEDZZQKXOk-702" value="NAME" style="shape=partialRectangle;connectable=0;fillColor=none;top=0;left=0;bottom=0;right=0;align=left;spacingLeft=2;overflow=hidden;fontSize=11;strokeColor=light-dark(#000000,#FFFFFF);" parent="-C4er3GBCJvEDZZQKXOk-700" vertex="1">
          <mxGeometry x="71" width="120" height="45" as="geometry">
            <mxRectangle width="120" height="45" as="alternateBounds" />
          </mxGeometry>
        </mxCell>
        <mxCell id="-C4er3GBCJvEDZZQKXOk-703" value="" style="shape=partialRectangle;connectable=0;fillColor=none;top=0;left=0;bottom=0;right=0;align=left;spacingLeft=2;overflow=hidden;fontSize=11;strokeColor=light-dark(#000000,#FFFFFF);" parent="-C4er3GBCJvEDZZQKXOk-700" vertex="1">
          <mxGeometry x="191" width="43" height="45" as="geometry">
            <mxRectangle width="43" height="45" as="alternateBounds" />
          </mxGeometry>
        </mxCell>
        <mxCell id="-C4er3GBCJvEDZZQKXOk-704" style="shape=tableRow;horizontal=0;startSize=0;swimlaneHead=0;swimlaneBody=0;fillColor=none;collapsible=0;dropTarget=0;points=[[0,0.5],[1,0.5]];portConstraint=eastwest;top=0;left=0;right=0;bottom=0;strokeColor=light-dark(#000000,#FFFFFF);" parent="-C4er3GBCJvEDZZQKXOk-695" vertex="1">
          <mxGeometry y="115" width="234" height="45" as="geometry" />
        </mxCell>
        <mxCell id="-C4er3GBCJvEDZZQKXOk-705" value="CHAR" style="shape=partialRectangle;connectable=0;fillColor=none;top=0;left=0;bottom=0;right=0;align=left;spacingLeft=2;overflow=hidden;fontSize=11;strokeColor=light-dark(#000000,#FFFFFF);" parent="-C4er3GBCJvEDZZQKXOk-704" vertex="1">
          <mxGeometry width="71" height="45" as="geometry">
            <mxRectangle width="71" height="45" as="alternateBounds" />
          </mxGeometry>
        </mxCell>
        <mxCell id="-C4er3GBCJvEDZZQKXOk-706" value="EMAIL" style="shape=partialRectangle;connectable=0;fillColor=none;top=0;left=0;bottom=0;right=0;align=left;spacingLeft=2;overflow=hidden;fontSize=11;strokeColor=light-dark(#000000,#FFFFFF);" parent="-C4er3GBCJvEDZZQKXOk-704" vertex="1">
          <mxGeometry x="71" width="120" height="45" as="geometry">
            <mxRectangle width="120" height="45" as="alternateBounds" />
          </mxGeometry>
        </mxCell>
        <mxCell id="-C4er3GBCJvEDZZQKXOk-707" value="" style="shape=partialRectangle;connectable=0;fillColor=none;top=0;left=0;bottom=0;right=0;align=left;spacingLeft=2;overflow=hidden;fontSize=11;strokeColor=light-dark(#000000,#FFFFFF);" parent="-C4er3GBCJvEDZZQKXOk-704" vertex="1">
          <mxGeometry x="191" width="43" height="45" as="geometry">
            <mxRectangle width="43" height="45" as="alternateBounds" />
          </mxGeometry>
        </mxCell>
        <mxCell id="-C4er3GBCJvEDZZQKXOk-708" style="shape=tableRow;horizontal=0;startSize=0;swimlaneHead=0;swimlaneBody=0;fillColor=none;collapsible=0;dropTarget=0;points=[[0,0.5],[1,0.5]];portConstraint=eastwest;top=0;left=0;right=0;bottom=0;strokeColor=light-dark(#000000,#FFFFFF);" parent="-C4er3GBCJvEDZZQKXOk-695" vertex="1">
          <mxGeometry y="160" width="234" height="45" as="geometry" />
        </mxCell>
        <mxCell id="-C4er3GBCJvEDZZQKXOk-709" value="VARCHAR" style="shape=partialRectangle;connectable=0;fillColor=none;top=0;left=0;bottom=0;right=0;align=left;spacingLeft=2;overflow=hidden;fontSize=11;strokeColor=light-dark(#000000,#FFFFFF);" parent="-C4er3GBCJvEDZZQKXOk-708" vertex="1">
          <mxGeometry width="71" height="45" as="geometry">
            <mxRectangle width="71" height="45" as="alternateBounds" />
          </mxGeometry>
        </mxCell>
        <mxCell id="-C4er3GBCJvEDZZQKXOk-710" value="PHONE" style="shape=partialRectangle;connectable=0;fillColor=none;top=0;left=0;bottom=0;right=0;align=left;spacingLeft=2;overflow=hidden;fontSize=11;strokeColor=light-dark(#000000,#FFFFFF);" parent="-C4er3GBCJvEDZZQKXOk-708" vertex="1">
          <mxGeometry x="71" width="120" height="45" as="geometry">
            <mxRectangle width="120" height="45" as="alternateBounds" />
          </mxGeometry>
        </mxCell>
        <mxCell id="-C4er3GBCJvEDZZQKXOk-711" value="" style="shape=partialRectangle;connectable=0;fillColor=none;top=0;left=0;bottom=0;right=0;align=left;spacingLeft=2;overflow=hidden;fontSize=11;strokeColor=light-dark(#000000,#FFFFFF);" parent="-C4er3GBCJvEDZZQKXOk-708" vertex="1">
          <mxGeometry x="191" width="43" height="45" as="geometry">
            <mxRectangle width="43" height="45" as="alternateBounds" />
          </mxGeometry>
        </mxCell>
        <mxCell id="-C4er3GBCJvEDZZQKXOk-712" style="shape=tableRow;horizontal=0;startSize=0;swimlaneHead=0;swimlaneBody=0;fillColor=none;collapsible=0;dropTarget=0;points=[[0,0.5],[1,0.5]];portConstraint=eastwest;top=0;left=0;right=0;bottom=0;strokeColor=light-dark(#000000,#FFFFFF);" parent="-C4er3GBCJvEDZZQKXOk-695" vertex="1">
          <mxGeometry y="205" width="234" height="45" as="geometry" />
        </mxCell>
        <mxCell id="-C4er3GBCJvEDZZQKXOk-713" value="VARCHAR" style="shape=partialRectangle;connectable=0;fillColor=none;top=0;left=0;bottom=0;right=0;align=left;spacingLeft=2;overflow=hidden;fontSize=11;strokeColor=light-dark(#000000,#FFFFFF);" parent="-C4er3GBCJvEDZZQKXOk-712" vertex="1">
          <mxGeometry width="71" height="45" as="geometry">
            <mxRectangle width="71" height="45" as="alternateBounds" />
          </mxGeometry>
        </mxCell>
        <mxCell id="-C4er3GBCJvEDZZQKXOk-714" value="ADDRESS" style="shape=partialRectangle;connectable=0;fillColor=none;top=0;left=0;bottom=0;right=0;align=left;spacingLeft=2;overflow=hidden;fontSize=11;strokeColor=light-dark(#000000,#FFFFFF);" parent="-C4er3GBCJvEDZZQKXOk-712" vertex="1">
          <mxGeometry x="71" width="120" height="45" as="geometry">
            <mxRectangle width="120" height="45" as="alternateBounds" />
          </mxGeometry>
        </mxCell>
        <mxCell id="-C4er3GBCJvEDZZQKXOk-715" value="" style="shape=partialRectangle;connectable=0;fillColor=none;top=0;left=0;bottom=0;right=0;align=left;spacingLeft=2;overflow=hidden;fontSize=11;strokeColor=light-dark(#000000,#FFFFFF);" parent="-C4er3GBCJvEDZZQKXOk-712" vertex="1">
          <mxGeometry x="191" width="43" height="45" as="geometry">
            <mxRectangle width="43" height="45" as="alternateBounds" />
          </mxGeometry>
        </mxCell>
        <mxCell id="-C4er3GBCJvEDZZQKXOk-716" style="shape=tableRow;horizontal=0;startSize=0;swimlaneHead=0;swimlaneBody=0;fillColor=none;collapsible=0;dropTarget=0;points=[[0,0.5],[1,0.5]];portConstraint=eastwest;top=0;left=0;right=0;bottom=0;strokeColor=light-dark(#000000,#FFFFFF);" parent="-C4er3GBCJvEDZZQKXOk-695" vertex="1">
          <mxGeometry y="250" width="234" height="45" as="geometry" />
        </mxCell>
        <mxCell id="-C4er3GBCJvEDZZQKXOk-717" value="BOOL" style="shape=partialRectangle;connectable=0;fillColor=none;top=0;left=0;bottom=0;right=0;align=left;spacingLeft=2;overflow=hidden;fontSize=11;strokeColor=light-dark(#000000,#FFFFFF);" parent="-C4er3GBCJvEDZZQKXOk-716" vertex="1">
          <mxGeometry width="71" height="45" as="geometry">
            <mxRectangle width="71" height="45" as="alternateBounds" />
          </mxGeometry>
        </mxCell>
        <mxCell id="-C4er3GBCJvEDZZQKXOk-718" value="IS_ADMIN" style="shape=partialRectangle;connectable=0;fillColor=none;top=0;left=0;bottom=0;right=0;align=left;spacingLeft=2;overflow=hidden;fontSize=11;strokeColor=light-dark(#000000,#FFFFFF);" parent="-C4er3GBCJvEDZZQKXOk-716" vertex="1">
          <mxGeometry x="71" width="120" height="45" as="geometry">
            <mxRectangle width="120" height="45" as="alternateBounds" />
          </mxGeometry>
        </mxCell>
        <mxCell id="-C4er3GBCJvEDZZQKXOk-719" value="" style="shape=partialRectangle;connectable=0;fillColor=none;top=0;left=0;bottom=0;right=0;align=left;spacingLeft=2;overflow=hidden;fontSize=11;strokeColor=light-dark(#000000,#FFFFFF);" parent="-C4er3GBCJvEDZZQKXOk-716" vertex="1">
          <mxGeometry x="191" width="43" height="45" as="geometry">
            <mxRectangle width="43" height="45" as="alternateBounds" />
          </mxGeometry>
        </mxCell>
        <mxCell id="-C4er3GBCJvEDZZQKXOk-720" style="shape=tableRow;horizontal=0;startSize=0;swimlaneHead=0;swimlaneBody=0;fillColor=none;collapsible=0;dropTarget=0;points=[[0,0.5],[1,0.5]];portConstraint=eastwest;top=0;left=0;right=0;bottom=0;strokeColor=light-dark(#000000,#FFFFFF);" parent="-C4er3GBCJvEDZZQKXOk-695" vertex="1">
          <mxGeometry y="295" width="234" height="45" as="geometry" />
        </mxCell>
        <mxCell id="-C4er3GBCJvEDZZQKXOk-721" value="VARCHAR" style="shape=partialRectangle;connectable=0;fillColor=none;top=0;left=0;bottom=0;right=0;align=left;spacingLeft=2;overflow=hidden;fontSize=11;strokeColor=light-dark(#000000,#FFFFFF);" parent="-C4er3GBCJvEDZZQKXOk-720" vertex="1">
          <mxGeometry width="71" height="45" as="geometry">
            <mxRectangle width="71" height="45" as="alternateBounds" />
          </mxGeometry>
        </mxCell>
        <mxCell id="-C4er3GBCJvEDZZQKXOk-722" value="PASSWORD" style="shape=partialRectangle;connectable=0;fillColor=none;top=0;left=0;bottom=0;right=0;align=left;spacingLeft=2;overflow=hidden;fontSize=11;strokeColor=light-dark(#000000,#FFFFFF);" parent="-C4er3GBCJvEDZZQKXOk-720" vertex="1">
          <mxGeometry x="71" width="120" height="45" as="geometry">
            <mxRectangle width="120" height="45" as="alternateBounds" />
          </mxGeometry>
        </mxCell>
        <mxCell id="-C4er3GBCJvEDZZQKXOk-723" value="" style="shape=partialRectangle;connectable=0;fillColor=none;top=0;left=0;bottom=0;right=0;align=left;spacingLeft=2;overflow=hidden;fontSize=11;strokeColor=light-dark(#000000,#FFFFFF);" parent="-C4er3GBCJvEDZZQKXOk-720" vertex="1">
          <mxGeometry x="191" width="43" height="45" as="geometry">
            <mxRectangle width="43" height="45" as="alternateBounds" />
          </mxGeometry>
        </mxCell>
        <mxCell id="-C4er3GBCJvEDZZQKXOk-724" value="PART OF" style="curved=1;startArrow=ERmandOne;startSize=10;;endArrow=ERzeroToMany;endSize=10;;exitX=0;exitY=1;entryX=0.5;entryY=0;rounded=0;endFill=0;strokeColor=light-dark(#000000,#FFFFFF);" parent="1" source="-C4er3GBCJvEDZZQKXOk-588" target="-C4er3GBCJvEDZZQKXOk-614" edge="1">
          <mxGeometry x="-0.0726" y="11" relative="1" as="geometry">
            <Array as="points">
              <mxPoint x="171" y="199" />
            </Array>
            <mxPoint as="offset" />
          </mxGeometry>
        </mxCell>
        <mxCell id="-C4er3GBCJvEDZZQKXOk-725" value="INCLUDE TO" style="curved=1;startArrow=ERmandOne;startSize=10;;endArrow=ERzeroToMany;endSize=10;;exitX=0.5;exitY=1;entryX=0;entryY=0.28;rounded=0;startFill=0;endFill=0;strokeColor=light-dark(#000000,#FFFFFF);" parent="1" source="-C4er3GBCJvEDZZQKXOk-614" target="-C4er3GBCJvEDZZQKXOk-661" edge="1">
          <mxGeometry x="0.0349" y="7" relative="1" as="geometry">
            <Array as="points">
              <mxPoint x="170" y="540" />
            </Array>
            <mxPoint as="offset" />
          </mxGeometry>
        </mxCell>
        <mxCell id="-C4er3GBCJvEDZZQKXOk-726" value="PRODUCE" style="curved=1;startArrow=ERmandOne;startSize=10;;endArrow=ERzeroToMany;endSize=10;;exitX=0.5;exitY=1;entryX=0.5;entryY=0;rounded=0;endFill=0;strokeColor=light-dark(#000000,#FFFFFF);" parent="1" source="-C4er3GBCJvEDZZQKXOk-597" target="-C4er3GBCJvEDZZQKXOk-661" edge="1">
          <mxGeometry relative="1" as="geometry">
            <Array as="points" />
          </mxGeometry>
        </mxCell>
        <mxCell id="-C4er3GBCJvEDZZQKXOk-727" value="CONTAINS" style="curved=1;startArrow=ERmandOne;startSize=10;;endArrow=ERzeroToMany;endSize=10;;exitX=0.5;exitY=1.01;entryX=1;entryY=0.3;rounded=0;endFill=0;strokeColor=light-dark(#000000,#FFFFFF);" parent="1" source="-C4er3GBCJvEDZZQKXOk-686" target="-C4er3GBCJvEDZZQKXOk-661" edge="1">
          <mxGeometry relative="1" as="geometry">
            <Array as="points">
              <mxPoint x="800" y="540" />
            </Array>
          </mxGeometry>
        </mxCell>
        <mxCell id="-C4er3GBCJvEDZZQKXOk-728" value="CONTAIN" style="curved=1;startArrow=ERmandOne;startSize=10;;endArrow=ERoneToMany;endSize=10;;exitX=0.5;exitY=1;entryX=0;entryY=0.32;rounded=0;endFill=0;strokeColor=light-dark(#000000,#FFFFFF);" parent="1" source="-C4er3GBCJvEDZZQKXOk-627" target="-C4er3GBCJvEDZZQKXOk-640" edge="1">
          <mxGeometry x="0.0202" y="8" relative="1" as="geometry">
            <Array as="points">
              <mxPoint x="190" y="960" />
            </Array>
            <mxPoint as="offset" />
          </mxGeometry>
        </mxCell>
        <mxCell id="-C4er3GBCJvEDZZQKXOk-729" value="INCLUDE" style="curved=1;startArrow=ERzeroToMany;startSize=10;;endArrow=ERmandOne;endSize=10;;exitX=0.5;exitY=1;entryX=0.5;entryY=0;rounded=0;startFill=0;strokeColor=light-dark(#000000,#FFFFFF);" parent="1" source="-C4er3GBCJvEDZZQKXOk-661" target="-C4er3GBCJvEDZZQKXOk-640" edge="1">
          <mxGeometry relative="1" as="geometry">
            <Array as="points" />
          </mxGeometry>
        </mxCell>
        <mxCell id="-C4er3GBCJvEDZZQKXOk-730" value="PLACES" style="curved=1;startArrow=ERmandOne;startSize=10;;endArrow=ERzeroToMany;endSize=10;;exitX=0.5;exitY=1;entryX=1;entryY=0.32;rounded=0;endFill=0;startFill=0;strokeColor=light-dark(#000000,#FFFFFF);" parent="1" source="-C4er3GBCJvEDZZQKXOk-695" target="-C4er3GBCJvEDZZQKXOk-640" edge="1">
          <mxGeometry x="0.1371" y="-49" relative="1" as="geometry">
            <Array as="points">
              <mxPoint x="840" y="1100" />
            </Array>
            <mxPoint as="offset" />
          </mxGeometry>
        </mxCell>
        <mxCell id="-C4er3GBCJvEDZZQKXOk-731" value="PART OF" style="curved=1;startArrow=ERmandOne;startSize=10;;endArrow=ERzeroToMany;endSize=10;;exitX=0.99;exitY=1;entryX=0.5;entryY=0;rounded=0;startFill=0;endFill=0;strokeColor=light-dark(#000000,#FFFFFF);" parent="1" source="-C4er3GBCJvEDZZQKXOk-588" target="-C4er3GBCJvEDZZQKXOk-597" edge="1">
          <mxGeometry relative="1" as="geometry">
            <Array as="points">
              <mxPoint x="523" y="199" />
            </Array>
          </mxGeometry>
        </mxCell>
      </root>
    </mxGraphModel>
  </diagram>
</mxfile>
